<?xml version="1.0" encoding="iso-8859-1"?>
<!-- Generator: Adobe Illustrator 19.0.0, SVG Export Plug-In . SVG Version: 6.00 Build 0)  -->
<svg version="1.1" id="Layer_1" xmlns="http://www.w3.org/2000/svg" xmlns:xlink="http://www.w3.org/1999/xlink" x="0px" y="0px"
	 viewBox="0 0 512 512" style="enable-background:new 0 0 512 512;" xml:space="preserve">
<g>
	<g>
		<g>
			<path d="M256,192c-35.292,0-64,28.708-64,64s28.708,64,64,64s64-28.708,64-64S291.292,192,256,192z M256,298.667
				c-23.521,0-42.667-19.135-42.667-42.667s19.146-42.667,42.667-42.667s42.667,19.135,42.667,42.667S279.521,298.667,256,298.667z"
				/>
			<path d="M448,192c-35.292,0-64,28.708-64,64s28.708,64,64,64c35.292,0,64-28.708,64-64S483.292,192,448,192z M448,298.667
				c-23.521,0-42.667-19.135-42.667-42.667s19.146-42.667,42.667-42.667c23.521,0,42.667,19.135,42.667,42.667
				S471.521,298.667,448,298.667z"/>
			<path d="M64,192c-35.292,0-64,28.708-64,64s28.708,64,64,64s64-28.708,64-64S99.292,192,64,192z M64,298.667
				c-23.521,0-42.667-19.135-42.667-42.667S40.479,213.333,64,213.333s42.667,19.135,42.667,42.667S87.521,298.667,64,298.667z"/>
		</g>
	</g>
</g>
<g>
</g>
<g>
</g>
<g>
</g>
<g>
</g>
<g>
</g>
<g>
</g>
<g>
</g>
<g>
</g>
<g>
</g>
<g>
</g>
<g>
</g>
<g>
</g>
<g>
</g>
<g>
</g>
<g>
</g>
</svg>
